<mxfile host="app.diagrams.net" modified="2023-03-26T11:32:18.344Z" agent="Mozilla/5.0 (Windows NT 10.0; Win64; x64) AppleWebKit/537.36 (KHTML, like Gecko) Chrome/108.0.0.0 YaBrowser/23.1.5.708 Yowser/2.5 Safari/537.36" etag="qhx9teS_toDAVHdgogNA" version="21.1.1" type="github">
  <diagram id="C5RBs43oDa-KdzZeNtuy" name="Page-1">
    <mxGraphModel dx="1253" dy="721" grid="1" gridSize="10" guides="1" tooltips="1" connect="1" arrows="1" fold="1" page="1" pageScale="1" pageWidth="827" pageHeight="1169" math="0" shadow="0">
      <root>
        <mxCell id="WIyWlLk6GJQsqaUBKTNV-0" />
        <mxCell id="WIyWlLk6GJQsqaUBKTNV-1" parent="WIyWlLk6GJQsqaUBKTNV-0" />
        <mxCell id="Ah5ymf2Fe2yw6DyOjXPV-4" value="User" style="swimlane;fontStyle=1;align=center;verticalAlign=top;childLayout=stackLayout;horizontal=1;startSize=26;horizontalStack=0;resizeParent=1;resizeParentMax=0;resizeLast=0;collapsible=1;marginBottom=0;whiteSpace=wrap;html=1;" vertex="1" parent="WIyWlLk6GJQsqaUBKTNV-1">
          <mxGeometry x="500" y="80" width="160" height="88" as="geometry" />
        </mxCell>
        <mxCell id="Ah5ymf2Fe2yw6DyOjXPV-5" value="+id:INT&lt;br&gt;+login:STRING&lt;br&gt;+password:STRING" style="text;strokeColor=none;fillColor=none;align=left;verticalAlign=top;spacingLeft=4;spacingRight=4;overflow=hidden;rotatable=0;points=[[0,0.5],[1,0.5]];portConstraint=eastwest;whiteSpace=wrap;html=1;" vertex="1" parent="Ah5ymf2Fe2yw6DyOjXPV-4">
          <mxGeometry y="26" width="160" height="54" as="geometry" />
        </mxCell>
        <mxCell id="Ah5ymf2Fe2yw6DyOjXPV-6" value="" style="line;strokeWidth=1;fillColor=none;align=left;verticalAlign=middle;spacingTop=-1;spacingLeft=3;spacingRight=3;rotatable=0;labelPosition=right;points=[];portConstraint=eastwest;strokeColor=inherit;" vertex="1" parent="Ah5ymf2Fe2yw6DyOjXPV-4">
          <mxGeometry y="80" width="160" height="8" as="geometry" />
        </mxCell>
        <mxCell id="Ah5ymf2Fe2yw6DyOjXPV-22" style="edgeStyle=orthogonalEdgeStyle;rounded=0;orthogonalLoop=1;jettySize=auto;html=1;dashed=1;endArrow=block;endFill=0;" edge="1" parent="WIyWlLk6GJQsqaUBKTNV-1" source="Ah5ymf2Fe2yw6DyOjXPV-8" target="Ah5ymf2Fe2yw6DyOjXPV-21">
          <mxGeometry relative="1" as="geometry" />
        </mxCell>
        <mxCell id="Ah5ymf2Fe2yw6DyOjXPV-8" value="UserReposImpl" style="swimlane;fontStyle=1;align=center;verticalAlign=top;childLayout=stackLayout;horizontal=1;startSize=26;horizontalStack=0;resizeParent=1;resizeParentMax=0;resizeLast=0;collapsible=1;marginBottom=0;whiteSpace=wrap;html=1;" vertex="1" parent="WIyWlLk6GJQsqaUBKTNV-1">
          <mxGeometry x="500" y="210" width="160" height="34" as="geometry" />
        </mxCell>
        <mxCell id="Ah5ymf2Fe2yw6DyOjXPV-10" value="" style="line;strokeWidth=1;fillColor=none;align=left;verticalAlign=middle;spacingTop=-1;spacingLeft=3;spacingRight=3;rotatable=0;labelPosition=right;points=[];portConstraint=eastwest;strokeColor=inherit;" vertex="1" parent="Ah5ymf2Fe2yw6DyOjXPV-8">
          <mxGeometry y="26" width="160" height="8" as="geometry" />
        </mxCell>
        <mxCell id="Ah5ymf2Fe2yw6DyOjXPV-38" style="edgeStyle=orthogonalEdgeStyle;rounded=0;orthogonalLoop=1;jettySize=auto;html=1;entryX=1;entryY=0.5;entryDx=0;entryDy=0;dashed=1;endArrow=block;endFill=0;" edge="1" parent="WIyWlLk6GJQsqaUBKTNV-1" source="Ah5ymf2Fe2yw6DyOjXPV-16" target="Ah5ymf2Fe2yw6DyOjXPV-35">
          <mxGeometry relative="1" as="geometry" />
        </mxCell>
        <mxCell id="Ah5ymf2Fe2yw6DyOjXPV-42" style="edgeStyle=orthogonalEdgeStyle;rounded=0;orthogonalLoop=1;jettySize=auto;html=1;entryX=0.5;entryY=0;entryDx=0;entryDy=0;dashed=1;" edge="1" parent="WIyWlLk6GJQsqaUBKTNV-1" source="Ah5ymf2Fe2yw6DyOjXPV-16" target="Ah5ymf2Fe2yw6DyOjXPV-4">
          <mxGeometry relative="1" as="geometry">
            <Array as="points">
              <mxPoint x="980" y="60" />
              <mxPoint x="580" y="60" />
            </Array>
          </mxGeometry>
        </mxCell>
        <mxCell id="Ah5ymf2Fe2yw6DyOjXPV-16" value="SharedPrefUserStorage" style="swimlane;fontStyle=1;align=center;verticalAlign=top;childLayout=stackLayout;horizontal=1;startSize=26;horizontalStack=0;resizeParent=1;resizeParentMax=0;resizeLast=0;collapsible=1;marginBottom=0;whiteSpace=wrap;html=1;" vertex="1" parent="WIyWlLk6GJQsqaUBKTNV-1">
          <mxGeometry x="900" y="176" width="160" height="34" as="geometry" />
        </mxCell>
        <mxCell id="Ah5ymf2Fe2yw6DyOjXPV-18" value="" style="line;strokeWidth=1;fillColor=none;align=left;verticalAlign=middle;spacingTop=-1;spacingLeft=3;spacingRight=3;rotatable=0;labelPosition=right;points=[];portConstraint=eastwest;strokeColor=inherit;" vertex="1" parent="Ah5ymf2Fe2yw6DyOjXPV-16">
          <mxGeometry y="26" width="160" height="8" as="geometry" />
        </mxCell>
        <mxCell id="Ah5ymf2Fe2yw6DyOjXPV-21" value="&lt;p style=&quot;margin:0px;margin-top:4px;text-align:center;&quot;&gt;&lt;i&gt;&amp;lt;&amp;lt;Interface&amp;gt;&amp;gt;&lt;/i&gt;&lt;br&gt;&lt;b&gt;UserRepository&lt;/b&gt;&lt;/p&gt;&lt;hr size=&quot;1&quot;&gt;&lt;p style=&quot;margin:0px;margin-left:4px;&quot;&gt;&lt;br&gt;&lt;/p&gt;&lt;hr size=&quot;1&quot;&gt;&lt;pre style=&quot;margin:0px;margin-left:4px;&quot;&gt;+fun saveName()&lt;br&gt;+fun getName&lt;span style=&quot;background-color: rgb(252, 252, 252);&quot;&gt;()&lt;/span&gt;&lt;/pre&gt;&lt;pre style=&quot;margin:0px;margin-left:4px;&quot;&gt;&lt;span style=&quot;background-color: rgb(252, 252, 252);&quot;&gt;+fun checkStorage()&lt;/span&gt;&lt;/pre&gt;&lt;pre style=&quot;margin:0px;margin-left:4px;&quot;&gt;&lt;span style=&quot;background-color: rgb(252, 252, 252);&quot;&gt;+fun checkDb()&lt;/span&gt;&lt;/pre&gt;" style="verticalAlign=top;align=left;overflow=fill;fontSize=12;fontFamily=Helvetica;html=1;whiteSpace=wrap;" vertex="1" parent="WIyWlLk6GJQsqaUBKTNV-1">
          <mxGeometry x="260" y="200" width="190" height="130" as="geometry" />
        </mxCell>
        <mxCell id="Ah5ymf2Fe2yw6DyOjXPV-23" value="GetDataUserUseCase" style="swimlane;fontStyle=1;align=center;verticalAlign=top;childLayout=stackLayout;horizontal=1;startSize=26;horizontalStack=0;resizeParent=1;resizeParentMax=0;resizeLast=0;collapsible=1;marginBottom=0;whiteSpace=wrap;html=1;" vertex="1" parent="WIyWlLk6GJQsqaUBKTNV-1">
          <mxGeometry x="60" y="108" width="160" height="60" as="geometry" />
        </mxCell>
        <mxCell id="Ah5ymf2Fe2yw6DyOjXPV-25" value="" style="line;strokeWidth=1;fillColor=none;align=left;verticalAlign=middle;spacingTop=-1;spacingLeft=3;spacingRight=3;rotatable=0;labelPosition=right;points=[];portConstraint=eastwest;strokeColor=inherit;" vertex="1" parent="Ah5ymf2Fe2yw6DyOjXPV-23">
          <mxGeometry y="26" width="160" height="8" as="geometry" />
        </mxCell>
        <mxCell id="Ah5ymf2Fe2yw6DyOjXPV-26" value="+ execute:User" style="text;strokeColor=none;fillColor=none;align=left;verticalAlign=top;spacingLeft=4;spacingRight=4;overflow=hidden;rotatable=0;points=[[0,0.5],[1,0.5]];portConstraint=eastwest;whiteSpace=wrap;html=1;" vertex="1" parent="Ah5ymf2Fe2yw6DyOjXPV-23">
          <mxGeometry y="34" width="160" height="26" as="geometry" />
        </mxCell>
        <mxCell id="Ah5ymf2Fe2yw6DyOjXPV-44" style="edgeStyle=orthogonalEdgeStyle;rounded=0;orthogonalLoop=1;jettySize=auto;html=1;entryX=0;entryY=0.5;entryDx=0;entryDy=0;endArrow=none;endFill=0;" edge="1" parent="WIyWlLk6GJQsqaUBKTNV-1" source="Ah5ymf2Fe2yw6DyOjXPV-31" target="Ah5ymf2Fe2yw6DyOjXPV-21">
          <mxGeometry relative="1" as="geometry">
            <Array as="points">
              <mxPoint x="240" y="206" />
              <mxPoint x="240" y="260" />
            </Array>
          </mxGeometry>
        </mxCell>
        <mxCell id="Ah5ymf2Fe2yw6DyOjXPV-31" value="SaveDataUserUseCase" style="swimlane;fontStyle=1;align=center;verticalAlign=top;childLayout=stackLayout;horizontal=1;startSize=26;horizontalStack=0;resizeParent=1;resizeParentMax=0;resizeLast=0;collapsible=1;marginBottom=0;whiteSpace=wrap;html=1;" vertex="1" parent="WIyWlLk6GJQsqaUBKTNV-1">
          <mxGeometry x="60" y="176" width="160" height="60" as="geometry" />
        </mxCell>
        <mxCell id="Ah5ymf2Fe2yw6DyOjXPV-32" value="" style="line;strokeWidth=1;fillColor=none;align=left;verticalAlign=middle;spacingTop=-1;spacingLeft=3;spacingRight=3;rotatable=0;labelPosition=right;points=[];portConstraint=eastwest;strokeColor=inherit;" vertex="1" parent="Ah5ymf2Fe2yw6DyOjXPV-31">
          <mxGeometry y="26" width="160" height="8" as="geometry" />
        </mxCell>
        <mxCell id="Ah5ymf2Fe2yw6DyOjXPV-33" value="+ execute:Boolean" style="text;strokeColor=none;fillColor=none;align=left;verticalAlign=top;spacingLeft=4;spacingRight=4;overflow=hidden;rotatable=0;points=[[0,0.5],[1,0.5]];portConstraint=eastwest;whiteSpace=wrap;html=1;" vertex="1" parent="Ah5ymf2Fe2yw6DyOjXPV-31">
          <mxGeometry y="34" width="160" height="26" as="geometry" />
        </mxCell>
        <mxCell id="Ah5ymf2Fe2yw6DyOjXPV-41" style="edgeStyle=orthogonalEdgeStyle;rounded=0;orthogonalLoop=1;jettySize=auto;html=1;entryX=1;entryY=0.5;entryDx=0;entryDy=0;endArrow=diamondThin;endFill=0;endSize=17;startSize=20;strokeWidth=1;sourcePerimeterSpacing=0;targetPerimeterSpacing=0;" edge="1" parent="WIyWlLk6GJQsqaUBKTNV-1" source="Ah5ymf2Fe2yw6DyOjXPV-35" target="Ah5ymf2Fe2yw6DyOjXPV-8">
          <mxGeometry relative="1" as="geometry" />
        </mxCell>
        <mxCell id="Ah5ymf2Fe2yw6DyOjXPV-35" value="&lt;p style=&quot;margin:0px;margin-top:4px;text-align:center;&quot;&gt;&lt;i&gt;&amp;lt;&amp;lt;Interface&amp;gt;&amp;gt;&lt;/i&gt;&lt;br&gt;&lt;b&gt;UserStorage&lt;/b&gt;&lt;/p&gt;&lt;hr size=&quot;1&quot;&gt;&lt;p style=&quot;margin:0px;margin-left:4px;&quot;&gt;&lt;br&gt;&lt;/p&gt;&lt;hr size=&quot;1&quot;&gt;&lt;pre style=&quot;line-height: 10%;&quot;&gt;&lt;font style=&quot;background-color: rgb(252, 252, 252);&quot; face=&quot;Helvetica&quot;&gt;+save(&lt;/font&gt;User):Boolean&lt;/pre&gt;&lt;pre style=&quot;line-height: 10%;&quot;&gt;&lt;pre style=&quot;line-height: 10%;&quot;&gt;&lt;font style=&quot;background-color: rgb(252, 252, 252);&quot; face=&quot;Helvetica&quot;&gt;+get(): User&lt;/font&gt;&lt;/pre&gt;&lt;pre style=&quot;line-height: 10%;&quot;&gt;&lt;font style=&quot;background-color: rgb(252, 252, 252);&quot; face=&quot;Helvetica&quot;&gt;+check(): Boolean&lt;/font&gt;&lt;/pre&gt;&lt;/pre&gt;" style="verticalAlign=top;align=left;overflow=fill;fontSize=12;fontFamily=Helvetica;html=1;whiteSpace=wrap;" vertex="1" parent="WIyWlLk6GJQsqaUBKTNV-1">
          <mxGeometry x="710" y="80" width="150" height="120" as="geometry" />
        </mxCell>
        <mxCell id="Ah5ymf2Fe2yw6DyOjXPV-43" style="edgeStyle=orthogonalEdgeStyle;rounded=0;orthogonalLoop=1;jettySize=auto;html=1;endArrow=none;endFill=0;entryX=0;entryY=0.5;entryDx=0;entryDy=0;" edge="1" parent="WIyWlLk6GJQsqaUBKTNV-1" source="Ah5ymf2Fe2yw6DyOjXPV-26" target="Ah5ymf2Fe2yw6DyOjXPV-21">
          <mxGeometry relative="1" as="geometry">
            <Array as="points">
              <mxPoint x="240" y="155" />
              <mxPoint x="240" y="260" />
            </Array>
          </mxGeometry>
        </mxCell>
        <mxCell id="Ah5ymf2Fe2yw6DyOjXPV-51" style="edgeStyle=orthogonalEdgeStyle;rounded=0;orthogonalLoop=1;jettySize=auto;html=1;entryX=0;entryY=0.5;entryDx=0;entryDy=0;endArrow=none;endFill=0;" edge="1" parent="WIyWlLk6GJQsqaUBKTNV-1" source="Ah5ymf2Fe2yw6DyOjXPV-48" target="Ah5ymf2Fe2yw6DyOjXPV-21">
          <mxGeometry relative="1" as="geometry">
            <Array as="points">
              <mxPoint x="240" y="278" />
              <mxPoint x="240" y="260" />
              <mxPoint x="260" y="260" />
            </Array>
          </mxGeometry>
        </mxCell>
        <mxCell id="Ah5ymf2Fe2yw6DyOjXPV-48" value="CheckUserStorageUseCase" style="swimlane;fontStyle=1;align=center;verticalAlign=top;childLayout=stackLayout;horizontal=1;startSize=26;horizontalStack=0;resizeParent=1;resizeParentMax=0;resizeLast=0;collapsible=1;marginBottom=0;whiteSpace=wrap;html=1;" vertex="1" parent="WIyWlLk6GJQsqaUBKTNV-1">
          <mxGeometry x="60" y="248" width="160" height="60" as="geometry" />
        </mxCell>
        <mxCell id="Ah5ymf2Fe2yw6DyOjXPV-49" value="" style="line;strokeWidth=1;fillColor=none;align=left;verticalAlign=middle;spacingTop=-1;spacingLeft=3;spacingRight=3;rotatable=0;labelPosition=right;points=[];portConstraint=eastwest;strokeColor=inherit;" vertex="1" parent="Ah5ymf2Fe2yw6DyOjXPV-48">
          <mxGeometry y="26" width="160" height="8" as="geometry" />
        </mxCell>
        <mxCell id="Ah5ymf2Fe2yw6DyOjXPV-50" value="+ execute:Boolean" style="text;strokeColor=none;fillColor=none;align=left;verticalAlign=top;spacingLeft=4;spacingRight=4;overflow=hidden;rotatable=0;points=[[0,0.5],[1,0.5]];portConstraint=eastwest;whiteSpace=wrap;html=1;" vertex="1" parent="Ah5ymf2Fe2yw6DyOjXPV-48">
          <mxGeometry y="34" width="160" height="26" as="geometry" />
        </mxCell>
        <mxCell id="Ah5ymf2Fe2yw6DyOjXPV-52" value="CheckUserDbUseCase" style="swimlane;fontStyle=1;align=center;verticalAlign=top;childLayout=stackLayout;horizontal=1;startSize=26;horizontalStack=0;resizeParent=1;resizeParentMax=0;resizeLast=0;collapsible=1;marginBottom=0;whiteSpace=wrap;html=1;" vertex="1" parent="WIyWlLk6GJQsqaUBKTNV-1">
          <mxGeometry x="60" y="320" width="160" height="60" as="geometry" />
        </mxCell>
        <mxCell id="Ah5ymf2Fe2yw6DyOjXPV-61" style="edgeStyle=orthogonalEdgeStyle;rounded=0;orthogonalLoop=1;jettySize=auto;html=1;endArrow=none;endFill=0;" edge="1" parent="Ah5ymf2Fe2yw6DyOjXPV-52" source="Ah5ymf2Fe2yw6DyOjXPV-53">
          <mxGeometry relative="1" as="geometry">
            <mxPoint x="179.9999999999999" y="-60" as="targetPoint" />
          </mxGeometry>
        </mxCell>
        <mxCell id="Ah5ymf2Fe2yw6DyOjXPV-53" value="" style="line;strokeWidth=1;fillColor=none;align=left;verticalAlign=middle;spacingTop=-1;spacingLeft=3;spacingRight=3;rotatable=0;labelPosition=right;points=[];portConstraint=eastwest;strokeColor=inherit;" vertex="1" parent="Ah5ymf2Fe2yw6DyOjXPV-52">
          <mxGeometry y="26" width="160" height="8" as="geometry" />
        </mxCell>
        <mxCell id="Ah5ymf2Fe2yw6DyOjXPV-54" value="+ execute:Boolean" style="text;strokeColor=none;fillColor=none;align=left;verticalAlign=top;spacingLeft=4;spacingRight=4;overflow=hidden;rotatable=0;points=[[0,0.5],[1,0.5]];portConstraint=eastwest;whiteSpace=wrap;html=1;" vertex="1" parent="Ah5ymf2Fe2yw6DyOjXPV-52">
          <mxGeometry y="34" width="160" height="26" as="geometry" />
        </mxCell>
        <mxCell id="Ah5ymf2Fe2yw6DyOjXPV-56" style="edgeStyle=orthogonalEdgeStyle;rounded=0;orthogonalLoop=1;jettySize=auto;html=1;endArrow=none;endFill=0;" edge="1" parent="WIyWlLk6GJQsqaUBKTNV-1" source="Ah5ymf2Fe2yw6DyOjXPV-55">
          <mxGeometry relative="1" as="geometry">
            <mxPoint x="690" y="220" as="targetPoint" />
          </mxGeometry>
        </mxCell>
        <mxCell id="Ah5ymf2Fe2yw6DyOjXPV-55" value="&lt;p style=&quot;margin:0px;margin-top:4px;text-align:center;&quot;&gt;&lt;i&gt;&amp;lt;&amp;lt;Interface&amp;gt;&amp;gt;&lt;/i&gt;&lt;br&gt;&lt;b&gt;UserDb&lt;/b&gt;&lt;/p&gt;&lt;hr size=&quot;1&quot;&gt;&lt;p style=&quot;margin:0px;margin-left:4px;&quot;&gt;&lt;br&gt;&lt;/p&gt;&lt;hr size=&quot;1&quot;&gt;&lt;pre style=&quot;line-height: 10%;&quot;&gt;&lt;font style=&quot;background-color: rgb(252, 252, 252);&quot; face=&quot;Helvetica&quot;&gt;+save(&lt;/font&gt;User):Boolean&lt;/pre&gt;&lt;pre style=&quot;line-height: 10%;&quot;&gt;&lt;pre style=&quot;line-height: 10%;&quot;&gt;&lt;font style=&quot;background-color: rgb(252, 252, 252);&quot; face=&quot;Helvetica&quot;&gt;+get(): User&lt;/font&gt;&lt;/pre&gt;&lt;pre style=&quot;line-height: 10%;&quot;&gt;&lt;font style=&quot;background-color: rgb(252, 252, 252);&quot; face=&quot;Helvetica&quot;&gt;+check(): Boolean&lt;/font&gt;&lt;/pre&gt;&lt;/pre&gt;" style="verticalAlign=top;align=left;overflow=fill;fontSize=12;fontFamily=Helvetica;html=1;whiteSpace=wrap;" vertex="1" parent="WIyWlLk6GJQsqaUBKTNV-1">
          <mxGeometry x="710" y="236" width="150" height="120" as="geometry" />
        </mxCell>
        <mxCell id="Ah5ymf2Fe2yw6DyOjXPV-59" style="edgeStyle=orthogonalEdgeStyle;rounded=0;orthogonalLoop=1;jettySize=auto;html=1;dashed=1;endArrow=block;endFill=0;" edge="1" parent="WIyWlLk6GJQsqaUBKTNV-1" source="Ah5ymf2Fe2yw6DyOjXPV-57" target="Ah5ymf2Fe2yw6DyOjXPV-55">
          <mxGeometry relative="1" as="geometry" />
        </mxCell>
        <mxCell id="Ah5ymf2Fe2yw6DyOjXPV-60" style="edgeStyle=orthogonalEdgeStyle;rounded=0;orthogonalLoop=1;jettySize=auto;html=1;entryX=0.5;entryY=0;entryDx=0;entryDy=0;dashed=1;" edge="1" parent="WIyWlLk6GJQsqaUBKTNV-1" source="Ah5ymf2Fe2yw6DyOjXPV-57" target="Ah5ymf2Fe2yw6DyOjXPV-4">
          <mxGeometry relative="1" as="geometry">
            <Array as="points">
              <mxPoint x="1080" y="253" />
              <mxPoint x="1080" y="60" />
              <mxPoint x="580" y="60" />
            </Array>
          </mxGeometry>
        </mxCell>
        <mxCell id="Ah5ymf2Fe2yw6DyOjXPV-57" value="DbfUser" style="swimlane;fontStyle=1;align=center;verticalAlign=top;childLayout=stackLayout;horizontal=1;startSize=26;horizontalStack=0;resizeParent=1;resizeParentMax=0;resizeLast=0;collapsible=1;marginBottom=0;whiteSpace=wrap;html=1;" vertex="1" parent="WIyWlLk6GJQsqaUBKTNV-1">
          <mxGeometry x="900" y="236" width="160" height="34" as="geometry" />
        </mxCell>
        <mxCell id="Ah5ymf2Fe2yw6DyOjXPV-58" value="" style="line;strokeWidth=1;fillColor=none;align=left;verticalAlign=middle;spacingTop=-1;spacingLeft=3;spacingRight=3;rotatable=0;labelPosition=right;points=[];portConstraint=eastwest;strokeColor=inherit;" vertex="1" parent="Ah5ymf2Fe2yw6DyOjXPV-57">
          <mxGeometry y="26" width="160" height="8" as="geometry" />
        </mxCell>
        <mxCell id="Ah5ymf2Fe2yw6DyOjXPV-62" value="&lt;p style=&quot;margin:0px;margin-top:4px;text-align:center;&quot;&gt;&lt;i&gt;&amp;lt;&amp;lt;Interface&amp;gt;&amp;gt;&lt;/i&gt;&lt;br&gt;&lt;b&gt;TaskRepository&lt;/b&gt;&lt;/p&gt;&lt;hr size=&quot;1&quot;&gt;&lt;p style=&quot;margin:0px;margin-left:4px;&quot;&gt;&lt;br&gt;&lt;/p&gt;&lt;hr size=&quot;1&quot;&gt;&lt;pre style=&quot;margin:0px;margin-left:4px;&quot;&gt;+fun saveTask()&lt;br&gt;+fun getTask&lt;span style=&quot;background-color: rgb(252, 252, 252);&quot;&gt;()&lt;/span&gt;&lt;/pre&gt;&lt;pre style=&quot;margin:0px;margin-left:4px;&quot;&gt;&lt;pre style=&quot;border-color: var(--border-color); margin-top: 0px; margin-bottom: 0px; margin-left: 4px;&quot;&gt;+fun getAllTask()&lt;/pre&gt;&lt;/pre&gt;&lt;pre style=&quot;margin:0px;margin-left:4px;&quot;&gt;&lt;span style=&quot;background-color: rgb(252, 252, 252);&quot;&gt;+fun editTask()&lt;/span&gt;&lt;/pre&gt;&lt;pre style=&quot;margin:0px;margin-left:4px;&quot;&gt;&lt;span style=&quot;background-color: rgb(252, 252, 252);&quot;&gt;+fun deleteTask()&lt;/span&gt;&lt;/pre&gt;" style="verticalAlign=top;align=left;overflow=fill;fontSize=12;fontFamily=Helvetica;html=1;whiteSpace=wrap;" vertex="1" parent="WIyWlLk6GJQsqaUBKTNV-1">
          <mxGeometry x="260" y="520" width="190" height="160" as="geometry" />
        </mxCell>
        <mxCell id="Ah5ymf2Fe2yw6DyOjXPV-79" style="edgeStyle=orthogonalEdgeStyle;rounded=0;orthogonalLoop=1;jettySize=auto;html=1;entryX=0;entryY=0.5;entryDx=0;entryDy=0;endArrow=none;endFill=0;" edge="1" parent="WIyWlLk6GJQsqaUBKTNV-1" source="Ah5ymf2Fe2yw6DyOjXPV-63" target="Ah5ymf2Fe2yw6DyOjXPV-62">
          <mxGeometry relative="1" as="geometry" />
        </mxCell>
        <mxCell id="Ah5ymf2Fe2yw6DyOjXPV-63" value="GetTaskUseCase" style="swimlane;fontStyle=1;align=center;verticalAlign=top;childLayout=stackLayout;horizontal=1;startSize=26;horizontalStack=0;resizeParent=1;resizeParentMax=0;resizeLast=0;collapsible=1;marginBottom=0;whiteSpace=wrap;html=1;" vertex="1" parent="WIyWlLk6GJQsqaUBKTNV-1">
          <mxGeometry x="60" y="460" width="160" height="60" as="geometry" />
        </mxCell>
        <mxCell id="Ah5ymf2Fe2yw6DyOjXPV-65" value="" style="line;strokeWidth=1;fillColor=none;align=left;verticalAlign=middle;spacingTop=-1;spacingLeft=3;spacingRight=3;rotatable=0;labelPosition=right;points=[];portConstraint=eastwest;strokeColor=inherit;" vertex="1" parent="Ah5ymf2Fe2yw6DyOjXPV-63">
          <mxGeometry y="26" width="160" height="8" as="geometry" />
        </mxCell>
        <mxCell id="Ah5ymf2Fe2yw6DyOjXPV-66" value="+ execute:Task" style="text;strokeColor=none;fillColor=none;align=left;verticalAlign=top;spacingLeft=4;spacingRight=4;overflow=hidden;rotatable=0;points=[[0,0.5],[1,0.5]];portConstraint=eastwest;whiteSpace=wrap;html=1;" vertex="1" parent="Ah5ymf2Fe2yw6DyOjXPV-63">
          <mxGeometry y="34" width="160" height="26" as="geometry" />
        </mxCell>
        <mxCell id="Ah5ymf2Fe2yw6DyOjXPV-67" value="GetAllTaskUseCase" style="swimlane;fontStyle=1;align=center;verticalAlign=top;childLayout=stackLayout;horizontal=1;startSize=26;horizontalStack=0;resizeParent=1;resizeParentMax=0;resizeLast=0;collapsible=1;marginBottom=0;whiteSpace=wrap;html=1;" vertex="1" parent="WIyWlLk6GJQsqaUBKTNV-1">
          <mxGeometry x="60" y="530" width="160" height="60" as="geometry" />
        </mxCell>
        <mxCell id="Ah5ymf2Fe2yw6DyOjXPV-68" value="" style="line;strokeWidth=1;fillColor=none;align=left;verticalAlign=middle;spacingTop=-1;spacingLeft=3;spacingRight=3;rotatable=0;labelPosition=right;points=[];portConstraint=eastwest;strokeColor=inherit;" vertex="1" parent="Ah5ymf2Fe2yw6DyOjXPV-67">
          <mxGeometry y="26" width="160" height="8" as="geometry" />
        </mxCell>
        <mxCell id="Ah5ymf2Fe2yw6DyOjXPV-69" value="+ execute:List&amp;lt;Task&amp;gt;" style="text;strokeColor=none;fillColor=none;align=left;verticalAlign=top;spacingLeft=4;spacingRight=4;overflow=hidden;rotatable=0;points=[[0,0.5],[1,0.5]];portConstraint=eastwest;whiteSpace=wrap;html=1;" vertex="1" parent="Ah5ymf2Fe2yw6DyOjXPV-67">
          <mxGeometry y="34" width="160" height="26" as="geometry" />
        </mxCell>
        <mxCell id="Ah5ymf2Fe2yw6DyOjXPV-81" style="edgeStyle=orthogonalEdgeStyle;rounded=0;orthogonalLoop=1;jettySize=auto;html=1;entryX=0;entryY=0.5;entryDx=0;entryDy=0;endArrow=none;endFill=0;" edge="1" parent="WIyWlLk6GJQsqaUBKTNV-1" source="Ah5ymf2Fe2yw6DyOjXPV-70" target="Ah5ymf2Fe2yw6DyOjXPV-62">
          <mxGeometry relative="1" as="geometry" />
        </mxCell>
        <mxCell id="Ah5ymf2Fe2yw6DyOjXPV-70" value="SaveTaskUseCase" style="swimlane;fontStyle=1;align=center;verticalAlign=top;childLayout=stackLayout;horizontal=1;startSize=26;horizontalStack=0;resizeParent=1;resizeParentMax=0;resizeLast=0;collapsible=1;marginBottom=0;whiteSpace=wrap;html=1;" vertex="1" parent="WIyWlLk6GJQsqaUBKTNV-1">
          <mxGeometry x="60" y="600" width="160" height="60" as="geometry" />
        </mxCell>
        <mxCell id="Ah5ymf2Fe2yw6DyOjXPV-71" value="" style="line;strokeWidth=1;fillColor=none;align=left;verticalAlign=middle;spacingTop=-1;spacingLeft=3;spacingRight=3;rotatable=0;labelPosition=right;points=[];portConstraint=eastwest;strokeColor=inherit;" vertex="1" parent="Ah5ymf2Fe2yw6DyOjXPV-70">
          <mxGeometry y="26" width="160" height="8" as="geometry" />
        </mxCell>
        <mxCell id="Ah5ymf2Fe2yw6DyOjXPV-72" value="+ execute:Boolean" style="text;strokeColor=none;fillColor=none;align=left;verticalAlign=top;spacingLeft=4;spacingRight=4;overflow=hidden;rotatable=0;points=[[0,0.5],[1,0.5]];portConstraint=eastwest;whiteSpace=wrap;html=1;" vertex="1" parent="Ah5ymf2Fe2yw6DyOjXPV-70">
          <mxGeometry y="34" width="160" height="26" as="geometry" />
        </mxCell>
        <mxCell id="Ah5ymf2Fe2yw6DyOjXPV-82" style="edgeStyle=orthogonalEdgeStyle;rounded=0;orthogonalLoop=1;jettySize=auto;html=1;entryX=0;entryY=0.5;entryDx=0;entryDy=0;endArrow=none;endFill=0;" edge="1" parent="WIyWlLk6GJQsqaUBKTNV-1" source="Ah5ymf2Fe2yw6DyOjXPV-73" target="Ah5ymf2Fe2yw6DyOjXPV-62">
          <mxGeometry relative="1" as="geometry" />
        </mxCell>
        <mxCell id="Ah5ymf2Fe2yw6DyOjXPV-73" value="EditTaskUseCase" style="swimlane;fontStyle=1;align=center;verticalAlign=top;childLayout=stackLayout;horizontal=1;startSize=26;horizontalStack=0;resizeParent=1;resizeParentMax=0;resizeLast=0;collapsible=1;marginBottom=0;whiteSpace=wrap;html=1;" vertex="1" parent="WIyWlLk6GJQsqaUBKTNV-1">
          <mxGeometry x="60" y="670" width="160" height="60" as="geometry" />
        </mxCell>
        <mxCell id="Ah5ymf2Fe2yw6DyOjXPV-74" value="" style="line;strokeWidth=1;fillColor=none;align=left;verticalAlign=middle;spacingTop=-1;spacingLeft=3;spacingRight=3;rotatable=0;labelPosition=right;points=[];portConstraint=eastwest;strokeColor=inherit;" vertex="1" parent="Ah5ymf2Fe2yw6DyOjXPV-73">
          <mxGeometry y="26" width="160" height="8" as="geometry" />
        </mxCell>
        <mxCell id="Ah5ymf2Fe2yw6DyOjXPV-75" value="+ execute:Task" style="text;strokeColor=none;fillColor=none;align=left;verticalAlign=top;spacingLeft=4;spacingRight=4;overflow=hidden;rotatable=0;points=[[0,0.5],[1,0.5]];portConstraint=eastwest;whiteSpace=wrap;html=1;" vertex="1" parent="Ah5ymf2Fe2yw6DyOjXPV-73">
          <mxGeometry y="34" width="160" height="26" as="geometry" />
        </mxCell>
        <mxCell id="Ah5ymf2Fe2yw6DyOjXPV-76" value="DeleteTaskUseCase" style="swimlane;fontStyle=1;align=center;verticalAlign=top;childLayout=stackLayout;horizontal=1;startSize=26;horizontalStack=0;resizeParent=1;resizeParentMax=0;resizeLast=0;collapsible=1;marginBottom=0;whiteSpace=wrap;html=1;" vertex="1" parent="WIyWlLk6GJQsqaUBKTNV-1">
          <mxGeometry x="60" y="740" width="160" height="60" as="geometry" />
        </mxCell>
        <mxCell id="Ah5ymf2Fe2yw6DyOjXPV-77" value="" style="line;strokeWidth=1;fillColor=none;align=left;verticalAlign=middle;spacingTop=-1;spacingLeft=3;spacingRight=3;rotatable=0;labelPosition=right;points=[];portConstraint=eastwest;strokeColor=inherit;" vertex="1" parent="Ah5ymf2Fe2yw6DyOjXPV-76">
          <mxGeometry y="26" width="160" height="8" as="geometry" />
        </mxCell>
        <mxCell id="Ah5ymf2Fe2yw6DyOjXPV-78" value="+ execute:Boolean" style="text;strokeColor=none;fillColor=none;align=left;verticalAlign=top;spacingLeft=4;spacingRight=4;overflow=hidden;rotatable=0;points=[[0,0.5],[1,0.5]];portConstraint=eastwest;whiteSpace=wrap;html=1;" vertex="1" parent="Ah5ymf2Fe2yw6DyOjXPV-76">
          <mxGeometry y="34" width="160" height="26" as="geometry" />
        </mxCell>
        <mxCell id="Ah5ymf2Fe2yw6DyOjXPV-80" style="edgeStyle=orthogonalEdgeStyle;rounded=0;orthogonalLoop=1;jettySize=auto;html=1;entryX=0;entryY=0.5;entryDx=0;entryDy=0;endArrow=none;endFill=0;" edge="1" parent="WIyWlLk6GJQsqaUBKTNV-1" source="Ah5ymf2Fe2yw6DyOjXPV-69" target="Ah5ymf2Fe2yw6DyOjXPV-62">
          <mxGeometry relative="1" as="geometry" />
        </mxCell>
        <mxCell id="Ah5ymf2Fe2yw6DyOjXPV-83" style="edgeStyle=orthogonalEdgeStyle;rounded=0;orthogonalLoop=1;jettySize=auto;html=1;entryX=0;entryY=0.5;entryDx=0;entryDy=0;endArrow=none;endFill=0;" edge="1" parent="WIyWlLk6GJQsqaUBKTNV-1" source="Ah5ymf2Fe2yw6DyOjXPV-78" target="Ah5ymf2Fe2yw6DyOjXPV-62">
          <mxGeometry relative="1" as="geometry" />
        </mxCell>
        <mxCell id="Ah5ymf2Fe2yw6DyOjXPV-96" style="edgeStyle=orthogonalEdgeStyle;rounded=0;orthogonalLoop=1;jettySize=auto;html=1;dashed=1;endArrow=block;endFill=0;" edge="1" parent="WIyWlLk6GJQsqaUBKTNV-1" source="Ah5ymf2Fe2yw6DyOjXPV-84" target="Ah5ymf2Fe2yw6DyOjXPV-62">
          <mxGeometry relative="1" as="geometry" />
        </mxCell>
        <mxCell id="Ah5ymf2Fe2yw6DyOjXPV-84" value="TaskReposImpl" style="swimlane;fontStyle=1;align=center;verticalAlign=top;childLayout=stackLayout;horizontal=1;startSize=26;horizontalStack=0;resizeParent=1;resizeParentMax=0;resizeLast=0;collapsible=1;marginBottom=0;whiteSpace=wrap;html=1;" vertex="1" parent="WIyWlLk6GJQsqaUBKTNV-1">
          <mxGeometry x="500" y="590" width="160" height="34" as="geometry" />
        </mxCell>
        <mxCell id="Ah5ymf2Fe2yw6DyOjXPV-85" value="" style="line;strokeWidth=1;fillColor=none;align=left;verticalAlign=middle;spacingTop=-1;spacingLeft=3;spacingRight=3;rotatable=0;labelPosition=right;points=[];portConstraint=eastwest;strokeColor=inherit;" vertex="1" parent="Ah5ymf2Fe2yw6DyOjXPV-84">
          <mxGeometry y="26" width="160" height="8" as="geometry" />
        </mxCell>
        <mxCell id="Ah5ymf2Fe2yw6DyOjXPV-86" value="Task" style="swimlane;fontStyle=1;align=center;verticalAlign=top;childLayout=stackLayout;horizontal=1;startSize=26;horizontalStack=0;resizeParent=1;resizeParentMax=0;resizeLast=0;collapsible=1;marginBottom=0;whiteSpace=wrap;html=1;" vertex="1" parent="WIyWlLk6GJQsqaUBKTNV-1">
          <mxGeometry x="500" y="432" width="160" height="138" as="geometry" />
        </mxCell>
        <mxCell id="Ah5ymf2Fe2yw6DyOjXPV-87" value="+id:INT&lt;br&gt;+name:STRING&lt;br&gt;+desc:STRING&lt;br&gt;+data:DATA&lt;br&gt;+time:TIME&lt;br&gt;+icon:ICON&lt;br&gt;+color: COLOR" style="text;strokeColor=none;fillColor=none;align=left;verticalAlign=top;spacingLeft=4;spacingRight=4;overflow=hidden;rotatable=0;points=[[0,0.5],[1,0.5]];portConstraint=eastwest;whiteSpace=wrap;html=1;" vertex="1" parent="Ah5ymf2Fe2yw6DyOjXPV-86">
          <mxGeometry y="26" width="160" height="104" as="geometry" />
        </mxCell>
        <mxCell id="Ah5ymf2Fe2yw6DyOjXPV-88" value="" style="line;strokeWidth=1;fillColor=none;align=left;verticalAlign=middle;spacingTop=-1;spacingLeft=3;spacingRight=3;rotatable=0;labelPosition=right;points=[];portConstraint=eastwest;strokeColor=inherit;" vertex="1" parent="Ah5ymf2Fe2yw6DyOjXPV-86">
          <mxGeometry y="130" width="160" height="8" as="geometry" />
        </mxCell>
        <mxCell id="Ah5ymf2Fe2yw6DyOjXPV-95" style="edgeStyle=orthogonalEdgeStyle;rounded=0;orthogonalLoop=1;jettySize=auto;html=1;entryX=1;entryY=0.5;entryDx=0;entryDy=0;endArrow=diamondThin;endFill=0;startSize=20;endSize=20;" edge="1" parent="WIyWlLk6GJQsqaUBKTNV-1" source="Ah5ymf2Fe2yw6DyOjXPV-90" target="Ah5ymf2Fe2yw6DyOjXPV-84">
          <mxGeometry relative="1" as="geometry" />
        </mxCell>
        <mxCell id="Ah5ymf2Fe2yw6DyOjXPV-90" value="&lt;p style=&quot;margin:0px;margin-top:4px;text-align:center;&quot;&gt;&lt;i&gt;&amp;lt;&amp;lt;Interface&amp;gt;&amp;gt;&lt;/i&gt;&lt;br&gt;&lt;b&gt;TaskDb&lt;/b&gt;&lt;/p&gt;&lt;hr size=&quot;1&quot;&gt;&lt;p style=&quot;margin:0px;margin-left:4px;&quot;&gt;&lt;br&gt;&lt;/p&gt;&lt;hr size=&quot;1&quot;&gt;&lt;pre style=&quot;line-height: 10%;&quot;&gt;&lt;font style=&quot;background-color: rgb(252, 252, 252);&quot; face=&quot;Helvetica&quot;&gt;+save(&lt;/font&gt;Task):Boolean&lt;/pre&gt;&lt;pre style=&quot;line-height: 10%;&quot;&gt;&lt;pre style=&quot;line-height: 10%;&quot;&gt;&lt;font style=&quot;background-color: rgb(252, 252, 252);&quot; face=&quot;Helvetica&quot;&gt;+get(): Task&lt;/font&gt;&lt;/pre&gt;&lt;pre style=&quot;line-height: 10%;&quot;&gt;&lt;font style=&quot;background-color: rgb(252, 252, 252);&quot; face=&quot;Helvetica&quot;&gt;+getAllTask(): List&amp;lt;Task&amp;gt;&lt;/font&gt;&lt;/pre&gt;&lt;pre style=&quot;line-height: 10%;&quot;&gt;&lt;font style=&quot;background-color: rgb(252, 252, 252);&quot; face=&quot;Helvetica&quot;&gt;+editTask(): Task&lt;/font&gt;&lt;/pre&gt;&lt;pre style=&quot;line-height: 10%;&quot;&gt;&lt;font style=&quot;background-color: rgb(252, 252, 252);&quot; face=&quot;Helvetica&quot;&gt;+delete(Task): Boolean&lt;/font&gt;&lt;/pre&gt;&lt;/pre&gt;" style="verticalAlign=top;align=left;overflow=fill;fontSize=12;fontFamily=Helvetica;html=1;whiteSpace=wrap;" vertex="1" parent="WIyWlLk6GJQsqaUBKTNV-1">
          <mxGeometry x="720" y="470" width="150" height="150" as="geometry" />
        </mxCell>
        <mxCell id="Ah5ymf2Fe2yw6DyOjXPV-93" style="edgeStyle=orthogonalEdgeStyle;rounded=0;orthogonalLoop=1;jettySize=auto;html=1;entryX=1;entryY=0.5;entryDx=0;entryDy=0;endArrow=block;endFill=0;dashed=1;" edge="1" parent="WIyWlLk6GJQsqaUBKTNV-1" source="Ah5ymf2Fe2yw6DyOjXPV-91" target="Ah5ymf2Fe2yw6DyOjXPV-90">
          <mxGeometry relative="1" as="geometry" />
        </mxCell>
        <mxCell id="Ah5ymf2Fe2yw6DyOjXPV-94" style="edgeStyle=orthogonalEdgeStyle;rounded=0;orthogonalLoop=1;jettySize=auto;html=1;entryX=0.5;entryY=0;entryDx=0;entryDy=0;dashed=1;" edge="1" parent="WIyWlLk6GJQsqaUBKTNV-1" source="Ah5ymf2Fe2yw6DyOjXPV-91" target="Ah5ymf2Fe2yw6DyOjXPV-86">
          <mxGeometry relative="1" as="geometry">
            <Array as="points">
              <mxPoint x="910" y="412" />
              <mxPoint x="580" y="412" />
            </Array>
          </mxGeometry>
        </mxCell>
        <mxCell id="Ah5ymf2Fe2yw6DyOjXPV-91" value="DbTask" style="swimlane;fontStyle=1;align=center;verticalAlign=top;childLayout=stackLayout;horizontal=1;startSize=26;horizontalStack=0;resizeParent=1;resizeParentMax=0;resizeLast=0;collapsible=1;marginBottom=0;whiteSpace=wrap;html=1;" vertex="1" parent="WIyWlLk6GJQsqaUBKTNV-1">
          <mxGeometry x="910" y="536" width="160" height="34" as="geometry" />
        </mxCell>
        <mxCell id="Ah5ymf2Fe2yw6DyOjXPV-92" value="" style="line;strokeWidth=1;fillColor=none;align=left;verticalAlign=middle;spacingTop=-1;spacingLeft=3;spacingRight=3;rotatable=0;labelPosition=right;points=[];portConstraint=eastwest;strokeColor=inherit;" vertex="1" parent="Ah5ymf2Fe2yw6DyOjXPV-91">
          <mxGeometry y="26" width="160" height="8" as="geometry" />
        </mxCell>
      </root>
    </mxGraphModel>
  </diagram>
</mxfile>
